<?xml version="1.0" encoding="utf-8"?>
<!-- Generator: Adobe Illustrator 24.1.1, SVG Export Plug-In . SVG Version: 6.00 Build 0)  -->
<svg version="1.1" id="Layer_1" xmlns="http://www.w3.org/2000/svg" xmlns:xlink="http://www.w3.org/1999/xlink" x="0px" y="0px"
	 viewBox="0 0 512 512" style="enable-background:new 0 0 512 512;" xml:space="preserve">
<g>
	<path d="M256,460.8c113.13,0,204.8-91.7,204.8-204.8S369.13,51.2,256,51.2C142.9,51.2,51.2,142.9,51.2,256S142.9,460.8,256,460.8z
		 M256,512C114.63,512,0,397.38,0,256C0,114.6,114.63,0,256,0c141.4,0,256,114.6,256,256C512,397.38,397.4,512,256,512z"/>
	<path d="M158.38,195.38c0.32-3.18-0.88-6.3-3.23-8.45l-23.9-28.98v-4.35h74.23l57.35,126.77l50.42-126.77H384v4.35l-20.42,19.73
		l-2.28,5.77v145.1l2.28,5.75l19.97,19.78v4.32h-100.4v-4.35l20.65-20.22c2.05-2.05,2.05-2.65,2.05-5.75V210.8l-57.53,147.1h-7.75
		l-66.93-147.1v98.6c-0.55,4.15,0.83,8.3,3.73,11.33l26.88,32.85v4.38H128v-4.38l26.9-32.85c2.88-3.02,4.18-7.23,3.48-11.33V195.38z
		"/>
</g>
</svg>
